<svg width="16" height="16" viewBox="0 0 16 16" fill="none" xmlns="http://www.w3.org/2000/svg">
<path fill-rule="evenodd" clip-rule="evenodd" d="M6.52843 10.7853L3.7 7.95686L4.58388 7.07298L7.41231 9.9014L6.52843 10.7853Z" fill="#3DDC84"/>
<path fill-rule="evenodd" clip-rule="evenodd" d="M12.1853 5.12843L6.52843 10.7853L5.64454 9.9014L11.3014 4.24455L12.1853 5.12843Z" fill="#3DDC84"/>
<path fill-rule="evenodd" clip-rule="evenodd" d="M14.75 8C14.75 4.63011 11.7994 1.75 8 1.75C4.20058 1.75 1.25 4.63011 1.25 8C1.25 11.3699 4.20058 14.25 8 14.25C11.7994 14.25 14.75 11.3699 14.75 8ZM16 8C16 3.86522 12.4128 0.5 8 0.5C3.5872 0.5 0 3.86522 0 8C0 12.1348 3.5872 15.5 8 15.5C12.4128 15.5 16 12.1348 16 8Z" fill="#3DDC84"/>
</svg>
