<svg width="16" height="16" viewBox="0 0 16 16" fill="none" xmlns="http://www.w3.org/2000/svg">
<path d="M7.34502 4.85C7.34502 5.20899 7.63604 5.5 7.99502 5.5C8.35401 5.5 8.64503 5.20899 8.64503 4.85C8.64503 4.49102 8.35401 4.2 7.99502 4.2C7.63604 4.2 7.34502 4.49102 7.34502 4.85Z" fill="#EE3465"/>
<path d="M7.375 11.7V6.7H8.625V11.7H7.375Z" fill="#EE3465"/>
<path fill-rule="evenodd" clip-rule="evenodd" d="M16 8C16 12.1421 12.4183 15.5 8 15.5C3.58172 15.5 0 12.1421 0 8C0 3.85786 3.58172 0.5 8 0.5C12.4183 0.5 16 3.85786 16 8ZM14.75 8C14.75 11.377 11.8051 14.25 8 14.25C4.19486 14.25 1.25 11.377 1.25 8C1.25 4.62299 4.19486 1.75 8 1.75C11.8051 1.75 14.75 4.62299 14.75 8Z" fill="#EE3465"/>
</svg>
