<svg width="127" height="127" viewBox="0 0 127 127" fill="none" xmlns="http://www.w3.org/2000/svg">
<path d="M127 63.5C127 98.5701 98.5701 127 63.5 127C28.4299 127 0 98.5701 0 63.5C0 28.4299 28.4299 0 63.5 0C98.5701 0 127 28.4299 127 63.5ZM18.7336 63.5C18.7336 88.2238 38.7762 108.266 63.5 108.266C88.2238 108.266 108.266 88.2238 108.266 63.5C108.266 38.7762 88.2238 18.7336 63.5 18.7336C38.7762 18.7336 18.7336 38.7762 18.7336 63.5Z" fill="#2F2F2F"/>
<path d="M117.634 63.5C122.807 63.5 127.071 59.2843 126.31 54.1676C125.548 49.0391 124.159 44.0115 122.166 39.1996C118.975 31.4954 114.298 24.4952 108.401 18.5987C102.505 12.7022 95.5046 8.02482 87.8004 4.83365C82.9885 2.84051 77.9609 1.45152 72.8324 0.689517C67.7157 -0.0707223 63.5 4.19341 63.5 9.36625C63.5 14.5391 67.7381 18.6344 72.7981 19.7087C75.4719 20.2765 78.0944 21.0892 80.6318 22.1402C86.0632 24.39 90.9984 27.6876 95.1554 31.8446C99.3124 36.0016 102.61 40.9368 104.86 46.3682C105.911 48.9056 106.724 51.5281 107.291 54.2019C108.366 59.2619 112.461 63.5 117.634 63.5Z" fill="#A0A0A0"/>
</svg>
