<svg width="16" height="16" viewBox="0 0 16 16" fill="none" xmlns="http://www.w3.org/2000/svg">
<path fill-rule="evenodd" clip-rule="evenodd" d="M14.75 8C14.75 11.377 11.8051 14.25 8 14.25C4.19486 14.25 1.25 11.377 1.25 8C1.25 4.62299 4.19486 1.75 8 1.75C11.8051 1.75 14.75 4.62299 14.75 8ZM16 8C16 12.1421 12.4183 15.5 8 15.5C3.58172 15.5 0 12.1421 0 8C0 3.85786 3.58172 0.5 8 0.5C12.4183 0.5 16 3.85786 16 8ZM8.62873 3.10118L8.61494 10.4012L7.36494 10.3988L7.37873 3.09882L8.62873 3.10118ZM8.64502 12.35C8.64502 11.991 8.354 11.7 7.99502 11.7C7.63603 11.7 7.34502 11.991 7.34502 12.35C7.34502 12.709 7.63603 13 7.99502 13C8.354 13 8.64502 12.709 8.64502 12.35Z" fill="#EE3465"/>
</svg>
